<svg width="800" height="800" viewBox="0 0 800 800" fill="none" xmlns="http://www.w3.org/2000/svg">
<path fill-rule="evenodd" clip-rule="evenodd" d="M659.593 67H141.074C100.333 67 67 100.333 67 141.074V659.593C67 
700.333 100.333 733.667 141.074 733.667H659.593C700.333 733.667 733.667 700.333 733.667 659.593V141.074C733.667 
100.333 700.333 67 659.593 67ZM300.333 300.333C300.333 245.083 345.083 200.333 400.333 200.333C455.583 200.333 
500.333 245.083 500.333 300.333C500.333 355.583 455.583 400.333 400.333 400.333C345.083 400.333 300.333 355.583 
300.333 300.333ZM400.333 450.333C333.583 450.333 200.333 483.833 200.333 550.333V600.333H600.333V550.333C600.333
 483.833 467.083 450.333 400.333 450.333Z" fill="#66777e"/>
</svg>
