<svg width="800" height="800" viewBox="0 0 800 800" fill="none" xmlns="http://www.w3.org/2000/svg">
<path fill-rule="evenodd" clip-rule="evenodd" d="M115.482 115.482C66.6667 164.297 66.6667 242.865 66.6667 400C66.6667 557.133 66.6667 635.703 115.482 684.516C164.298 733.333 242.865 733.333 400 733.333C557.133 733.333 635.703 733.333 684.517 684.516C733.333 635.703 733.333 557.133 733.333 400C733.333 242.865 733.333 164.297 684.517 115.482C635.703 66.6665 557.133 66.6665 400 66.6665C242.865 66.6665 164.298 66.6665 115.482 115.482ZM214.128 317.329C222.968 306.722 238.732 305.289 249.339 314.128L258.553 321.806C278.718 338.61 295.884 352.913 307.765 366.07C320.384 380.043 330.231 396.113 330.231 416.667C330.231 437.22 320.384 453.29 307.765 467.263C295.884 480.42 278.718 494.726 258.553 511.526L249.339 519.206C238.732 528.046 222.968 526.613 214.128 516.006C205.289 505.396 198.909 482.613 209.516 473.776L217.329 467.263C239.282 448.97 253.636 436.93 262.843 426.733C271.585 417.053 269.5 419.5 274 414.5C271.5 412 271.585 412.723 262.843 403.04C253.636 392.843 239.282 380.803 217.33 362.51L209.516 356C198.909 347.16 205.289 327.936 214.128 317.329ZM591.667 500C591.667 513.806 580.473 525 566.667 525H400C386.193 525 375 513.806 375 500C375 486.193 386.193 462.5 400 462.5H483.333H566.667C580.473 462.5 591.667 486.193 591.667 500Z" fill="#66777E"/>
</svg>
