<svg xmlns="http://www.w3.org/2000/svg" data-name="ICON EXPAND" viewBox="0 0 100 100" x="0px"
    y="0px">
    <path
        d="M3.442,83.498c.172,.749,.825,1.254,1.561,1.254l52.803-.02c1.041,.778,2.429,.849,3.521,.212,.414-.256,.096-.188,1.628-.214,1.674,1.333,3.51,2.363,5.521,3.096v1.235c0,1.778,1.446,3.224,3.224,3.224h6.473c1.774,0,3.217-1.446,3.217-3.224l.06-1.27c2.169-.774,4.171-1.93,6.016-3.463l1.066,.611c1.546,.892,
        3.518,.351,4.4-1.176l3.246-5.617c.873-1.538,.34-3.506-1.188-4.388-1.854-1.008-.752,.235-.752-4.124s-1.051-3.077,.748-4.122c1.529-.881,2.062-2.855,1.186-4.402-3.572-6.177-3.393-6.059-4.161-6.603l4.405-15.76c.889-3.235-1.528-6.416-4.883-6.416h-7.591v-14.23c0-2.817-2.292-5.11-5.109-5.11H43.068l-.588-1.776c-.697-2.089-2.649-3.494-4.857-3.494H18.083c-2.21,
        0-4.162,1.405-4.858,3.497l-.587,1.773h-4.125c-2.817,0-5.109,2.292-5.109,5.11l.039,65.396Zm88.878-20.134c-1.176,.68-1.806,2.024-1.569,3.345,.396,2.076,.374,3.86,0,5.864-.235,1.312,.392,2.652,1.56,3.334l1.093,.653-3.273,5.604c-1.012-.577-1.611-1.037-2.662-1.037-1.547,0-1.997,.81-3.604,1.88-4.051,2.714-5.614,1.123-5.694,6.083l-6.49-.03c0-5.533-2.276-2.976-7.15-7.16-1.295-.971-2.715-.949-3.689-.35l-1.453,
        .05-2.907-5.073,1.08-.621c1.18-.682,1.806-2.026,1.559-3.345-1.233-6.573,2.174-6.92-2.642-9.851,3.509-6.131,3.113-5.523,3.307-5.589,4.642,2.708,3.82-.536,9.711-2.627,1.415-.511,2.186-1.826,2.186-3.054l.021-1.26,6.49,.03c0,1.352-.007,1.288,.02,1.437,.083,1.282,.934,2.399,2.167,2.848,5.422,1.919,5.374,5.147,9.232,2.902l.554-.286c.866,1.488,.219,.359,3.216,5.633l-1.059,
        .62Zm-23.84-13.154c-.071,1.463,.003,1.232-.221,1.33H29.38c-1.852,0-1.852-2.8,0-2.8h39.46c-.238,.46-.359,.954-.359,1.47Zm-44.2,12.66h29.003c.054,1.099,.645,2.083,1.598,2.647,.408,.231,3.625,.153-30.601,.153-1.852,0-1.852-2.8,0-2.8ZM75.471,29.83v2.5H22.82c-3.107,0-5.865,2.094-6.707,5.093l-4.244,15.188V29.83c0-1.075,.876-1.95,1.951-1.95h59.699c1.075,0,1.951,.875,1.951,1.95Zm11.963,35.406c-4.255-11.99-21.399-11.643-25.18,
        .504-3.41,11.119,8.034,20.736,18.156,16.009,.987,0,.856,.031,.887-.073,.181-.881-.122,.066,2.016-1.709,4.237-3.418,6.063-9.312,4.121-14.731Zm-12.504-5.626c5.512,0,10.081,4.558,10.081,10.07,0,5.548-4.533,10.08-10.081,10.08-7.109,0-12.064-7.249-9.298-13.951,1.632-3.855,5.37-6.199,9.298-6.199Zm-5.47,8.42h3.881c0-4.105-.174-4.494,.606-5.118,1.042-.836,2.593-.088,2.593,1.248v3.87h3.87c2.116,0,2.116,3.2,0,3.2h-3.87v3.88c0,2.117-3.199,2.117-3.199,
        0v-3.88h-3.881c-2.116,0-2.116-3.2,0-3.2Z" 
        fill="#66777e"
        />
</svg>